<svg width="16" height="18" viewBox="0 0 16 18" fill="none" xmlns="http://www.w3.org/2000/svg">
<path d="M15.956 0.516V18H13.844C13.532 18 13.268 17.952 13.052 17.856C12.844 17.752 12.636 17.576 12.428 17.328L4.184 6.9C4.216 7.212 4.236 7.516 4.244 7.812C4.26 8.1 4.268 8.372 4.268 8.628V18H0.692V0.516H2.828C3.004 0.516 3.152 0.524 3.272 0.539999C3.392 0.555999 3.5 0.587999 3.596 0.636C3.692 0.676 3.784 0.736 3.872 0.816C3.96 0.895999 4.06 1.004 4.172 1.14L12.488 11.64C12.448 11.304 12.42 10.98 12.404 10.668C12.388 10.348 12.38 10.048 12.38 9.768V0.516H15.956Z" fill="#DD5065"/>
</svg>
